<svg width="193" height="60" viewBox="0 0 193 60" fill="none" xmlns="http://www.w3.org/2000/svg">
<path d="M79.304 20.868H76.568V24H75.128V15.84H79.664V17.22H76.568V19.488H79.304V20.868ZM80.9946 15.84H82.4706V21.072C82.4706 21.6 82.5866 22.016 82.8186 22.32C83.0506 22.616 83.4226 22.764 83.9346 22.764C84.4466 22.764 84.8186 22.616 85.0506 22.32C85.2826 22.016 85.3986 21.6 85.3986 21.072V15.84H86.8746V21.072C86.8746 21.992 86.6306 22.732 86.1426 23.292C85.6546 23.844 84.9186 24.12 83.9346 24.12C82.9426 24.12 82.2026 23.844 81.7146 23.292C81.2346 22.732 80.9946 21.992 80.9946 21.072V15.84ZM88.9444 24V15.84H90.2644C90.8964 16.664 91.4964 17.536 92.0644 18.456C92.6324 19.368 93.1484 20.308 93.6124 21.276L93.5044 18.84V15.84H94.8844V24H93.5644C93.0524 22.992 92.5204 21.98 91.9684 20.964C91.4244 19.94 90.8444 18.976 90.2284 18.072L90.3244 20.88V24H88.9444ZM97.1358 24V15.84H99.8958C100.872 15.84 101.616 16.112 102.128 16.656C102.64 17.2 102.896 18 102.896 19.056V20.772C102.896 21.836 102.64 22.64 102.128 23.184C101.616 23.728 100.872 24 99.8958 24H97.1358ZM99.8358 17.22H98.5758V22.62H99.8358C100.404 22.62 100.808 22.48 101.048 22.2C101.296 21.92 101.42 21.444 101.42 20.772V19.056C101.42 18.392 101.296 17.92 101.048 17.64C100.808 17.36 100.404 17.22 99.8358 17.22ZM108.91 24L108.406 22.404H105.61L105.106 24H103.678L106.402 15.84H107.674L110.41 24H108.91ZM106.39 19.908L106.018 21.084H107.986L107.614 19.908L107.014 17.844L106.39 19.908ZM112.642 20.772C112.642 21.356 112.77 21.836 113.026 22.212C113.282 22.58 113.702 22.764 114.286 22.764C114.526 22.764 114.774 22.732 115.03 22.668C115.294 22.604 115.618 22.496 116.002 22.344L116.446 23.592C116.014 23.784 115.614 23.92 115.246 24C114.886 24.08 114.538 24.12 114.202 24.12C113.53 24.12 112.966 23.976 112.51 23.688C112.062 23.4 111.726 23.004 111.502 22.5C111.278 21.996 111.166 21.42 111.166 20.772V19.056C111.166 18.408 111.278 17.832 111.502 17.328C111.726 16.824 112.062 16.432 112.51 16.152C112.966 15.864 113.53 15.72 114.202 15.72C114.53 15.72 114.87 15.76 115.222 15.84C115.574 15.912 115.958 16.04 116.374 16.224L115.93 17.496C115.562 17.344 115.254 17.236 115.006 17.172C114.758 17.108 114.518 17.076 114.286 17.076C113.702 17.076 113.282 17.26 113.026 17.628C112.77 17.996 112.642 18.472 112.642 19.056V20.772ZM119.388 24H117.948V15.84H119.388V24ZM127.412 19.056V20.772C127.412 21.812 127.152 22.632 126.632 23.232C126.112 23.824 125.352 24.12 124.352 24.12C123.344 24.12 122.58 23.824 122.06 23.232C121.548 22.632 121.292 21.812 121.292 20.772V19.056C121.292 18.016 121.548 17.2 122.06 16.608C122.58 16.016 123.344 15.72 124.352 15.72C125.352 15.72 126.112 16.016 126.632 16.608C127.152 17.2 127.412 18.016 127.412 19.056ZM125.936 19.056C125.936 18.4 125.808 17.908 125.552 17.58C125.296 17.244 124.896 17.076 124.352 17.076C123.808 17.076 123.408 17.244 123.152 17.58C122.896 17.908 122.768 18.4 122.768 19.056V20.772C122.768 21.428 122.896 21.924 123.152 22.26C123.408 22.596 123.808 22.764 124.352 22.764C124.896 22.764 125.296 22.596 125.552 22.26C125.808 21.924 125.936 21.428 125.936 20.772V19.056ZM124.964 14.976H123.752L124.904 12.984L126.2 13.536L124.964 14.976ZM129.316 24V15.84H130.636C131.268 16.664 131.868 17.536 132.436 18.456C133.004 19.368 133.52 20.308 133.984 21.276L133.876 18.84V15.84H135.256V24H133.936C133.424 22.992 132.892 21.98 132.34 20.964C131.796 19.94 131.216 18.976 130.6 18.072L130.696 20.88V24H129.316ZM144.253 24L143.749 22.404H140.953L140.449 24H139.021L141.745 15.84H143.017L145.753 24H144.253ZM141.733 19.908L141.361 21.084H143.329L142.957 19.908L142.357 17.844L141.733 19.908ZM147.116 24V15.84H149.804C150.66 15.84 151.3 16.056 151.724 16.488C152.156 16.92 152.372 17.496 152.372 18.216V18.852C152.372 19.572 152.156 20.152 151.724 20.592C151.3 21.024 150.66 21.24 149.804 21.24H148.556V24H147.116ZM149.804 17.22H148.556V19.86H149.804C150.156 19.86 150.424 19.772 150.608 19.596C150.8 19.42 150.896 19.172 150.896 18.852V18.216C150.896 17.904 150.8 17.66 150.608 17.484C150.424 17.308 150.156 17.22 149.804 17.22ZM157.812 24L157.308 22.404H154.512L154.008 24H152.58L155.304 15.84H156.576L159.312 24H157.812ZM155.292 19.908L154.92 21.084H156.888L156.516 19.908L155.916 17.844L155.292 19.908ZM160.675 24V15.84H161.995C162.627 16.664 163.227 17.536 163.795 18.456C164.363 19.368 164.879 20.308 165.343 21.276L165.235 18.84V15.84H166.615V24H165.295C164.783 22.992 164.251 21.98 163.699 20.964C163.155 19.94 162.575 18.976 161.959 18.072L162.055 20.88V24H160.675ZM170.306 24H168.866V15.84H170.306V24ZM172.558 24V15.84H173.878C174.51 16.664 175.11 17.536 175.678 18.456C176.246 19.368 176.762 20.308 177.226 21.276L177.118 18.84V15.84H178.498V24H177.178C176.666 22.992 176.134 21.98 175.582 20.964C175.038 19.94 174.458 18.976 173.842 18.072L173.938 20.88V24H172.558ZM185.477 22.62V24H180.749V15.84H185.357V17.22H182.189V19.176H184.997V20.556H182.189V22.62H185.477ZM188.959 22.788C189.887 22.788 190.351 22.444 190.351 21.756C190.351 21.476 190.279 21.256 190.135 21.096C189.999 20.936 189.743 20.796 189.367 20.676L188.383 20.352C187.207 19.968 186.619 19.196 186.619 18.036C186.619 17.364 186.827 16.812 187.243 16.38C187.667 15.94 188.327 15.72 189.223 15.72C189.599 15.72 189.971 15.764 190.339 15.852C190.707 15.932 191.099 16.064 191.515 16.248L191.071 17.484C190.687 17.332 190.359 17.224 190.087 17.16C189.823 17.088 189.551 17.052 189.271 17.052C188.903 17.052 188.611 17.12 188.395 17.256C188.187 17.384 188.083 17.62 188.083 17.964C188.083 18.22 188.155 18.432 188.299 18.6C188.451 18.76 188.699 18.896 189.043 19.008L190.027 19.332C190.619 19.532 191.063 19.824 191.359 20.208C191.663 20.584 191.815 21.084 191.815 21.708C191.815 22.428 191.587 23.012 191.131 23.46C190.675 23.9 189.959 24.12 188.983 24.12C188.599 24.12 188.199 24.076 187.783 23.988C187.375 23.892 186.927 23.732 186.439 23.508L186.883 22.272C187.331 22.464 187.711 22.6 188.023 22.68C188.343 22.752 188.655 22.788 188.959 22.788Z" fill="white"/>
<path d="M100.472 42L99.968 40.404H97.172L96.668 42H95.24L97.964 33.84H99.236L101.972 42H100.472ZM97.952 37.908L97.58 39.084H99.548L99.176 37.908L98.576 35.844L97.952 37.908ZM104.907 33.84L107.187 39.42L109.455 33.84H111.027V42H109.647V38.88L109.827 36.024L107.799 41.04H106.515L104.535 36.012L104.715 38.88V42H103.335V33.84H104.907ZM119.056 37.056V38.772C119.056 39.812 118.796 40.632 118.276 41.232C117.756 41.824 116.996 42.12 115.996 42.12C114.988 42.12 114.224 41.824 113.704 41.232C113.192 40.632 112.936 39.812 112.936 38.772V37.056C112.936 36.016 113.192 35.2 113.704 34.608C114.224 34.016 114.988 33.72 115.996 33.72C116.996 33.72 117.756 34.016 118.276 34.608C118.796 35.2 119.056 36.016 119.056 37.056ZM117.58 37.056C117.58 36.4 117.452 35.908 117.196 35.58C116.94 35.244 116.54 35.076 115.996 35.076C115.452 35.076 115.052 35.244 114.796 35.58C114.54 35.908 114.412 36.4 114.412 37.056V38.772C114.412 39.428 114.54 39.924 114.796 40.26C115.052 40.596 115.452 40.764 115.996 40.764C116.54 40.764 116.94 40.596 117.196 40.26C117.452 39.924 117.58 39.428 117.58 38.772V37.056ZM122.4 39V42H120.96V33.84H123.684C124.508 33.84 125.14 34.052 125.58 34.476C126.028 34.892 126.252 35.452 126.252 36.156V36.672C126.252 37.136 126.152 37.544 125.952 37.896C125.752 38.248 125.464 38.516 125.088 38.7C125.744 39.82 126.304 40.92 126.768 42H125.124C124.724 41 124.248 40 123.696 39H122.4ZM123.684 35.16H122.4V37.68H123.684C124.036 37.68 124.304 37.592 124.488 37.416C124.68 37.232 124.776 36.984 124.776 36.672V36.156C124.776 35.852 124.68 35.612 124.488 35.436C124.304 35.252 124.036 35.16 123.684 35.16ZM132.451 40.788C133.379 40.788 133.843 40.444 133.843 39.756C133.843 39.476 133.771 39.256 133.627 39.096C133.491 38.936 133.235 38.796 132.859 38.676L131.875 38.352C130.699 37.968 130.111 37.196 130.111 36.036C130.111 35.364 130.319 34.812 130.735 34.38C131.159 33.94 131.819 33.72 132.715 33.72C133.091 33.72 133.463 33.764 133.831 33.852C134.199 33.932 134.591 34.064 135.007 34.248L134.563 35.484C134.179 35.332 133.851 35.224 133.579 35.16C133.315 35.088 133.043 35.052 132.763 35.052C132.395 35.052 132.103 35.12 131.887 35.256C131.679 35.384 131.575 35.62 131.575 35.964C131.575 36.22 131.647 36.432 131.791 36.6C131.943 36.76 132.191 36.896 132.535 37.008L133.519 37.332C134.111 37.532 134.555 37.824 134.851 38.208C135.155 38.584 135.307 39.084 135.307 39.708C135.307 40.428 135.079 41.012 134.623 41.46C134.167 41.9 133.451 42.12 132.475 42.12C132.091 42.12 131.691 42.076 131.275 41.988C130.867 41.892 130.419 41.732 129.931 41.508L130.375 40.272C130.823 40.464 131.203 40.6 131.515 40.68C131.835 40.752 132.147 40.788 132.451 40.788ZM138.326 42H136.886V33.84H138.326V42ZM140.577 42V33.84H141.897C142.529 34.664 143.129 35.536 143.697 36.456C144.265 37.368 144.781 38.308 145.245 39.276L145.137 36.84V33.84H146.517V42H145.197C144.685 40.992 144.153 39.98 143.601 38.964C143.057 37.94 142.477 36.976 141.861 36.072L141.957 38.88V42H140.577ZM155.875 40.62V42H151.171V33.84H152.611V40.62H155.875ZM158.693 42H157.253V33.84H158.693V42ZM158.585 32.976H157.373L158.525 30.984L159.821 31.536L158.585 32.976ZM162.516 33.84L164.796 39.42L167.064 33.84H168.636V42H167.256V38.88L167.436 36.024L165.408 41.04H164.124L162.144 36.012L162.324 38.88V42H160.944V33.84H162.516ZM172.334 42H170.894V33.84H172.334V42ZM173.613 35.22V33.84H179.613V35.22H177.333V42H175.893V35.22H173.613ZM185.629 40.62V42H180.901V33.84H185.509V35.22H182.341V37.176H185.149V38.556H182.341V40.62H185.629ZM189.111 40.788C190.039 40.788 190.503 40.444 190.503 39.756C190.503 39.476 190.431 39.256 190.287 39.096C190.151 38.936 189.895 38.796 189.519 38.676L188.535 38.352C187.359 37.968 186.771 37.196 186.771 36.036C186.771 35.364 186.979 34.812 187.395 34.38C187.819 33.94 188.479 33.72 189.375 33.72C189.751 33.72 190.123 33.764 190.491 33.852C190.859 33.932 191.251 34.064 191.667 34.248L191.223 35.484C190.839 35.332 190.511 35.224 190.239 35.16C189.975 35.088 189.703 35.052 189.423 35.052C189.055 35.052 188.763 35.12 188.547 35.256C188.339 35.384 188.235 35.62 188.235 35.964C188.235 36.22 188.307 36.432 188.451 36.6C188.603 36.76 188.851 36.896 189.195 37.008L190.179 37.332C190.771 37.532 191.215 37.824 191.511 38.208C191.815 38.584 191.967 39.084 191.967 39.708C191.967 40.428 191.739 41.012 191.283 41.46C190.827 41.9 190.111 42.12 189.135 42.12C188.751 42.12 188.351 42.076 187.935 41.988C187.527 41.892 187.079 41.732 186.591 41.508L187.035 40.272C187.483 40.464 187.863 40.6 188.175 40.68C188.495 40.752 188.807 40.788 189.111 40.788Z" fill="white"/>
<ellipse cx="35" cy="51" rx="35" ry="9" fill="#F6EA3A"/>
<circle cx="19.4001" cy="7.5" r="7.5" fill="#456BA5"/>
<path d="M26.4001 49C20.7334 50.3333 8.30007 52.2 3.90007 49C-0.499928 45.8 1.06674 37.3333 2.40007 33.5C3.06676 32 5.70015 27.3 10.9001 20.5C16.1001 13.7 16.4669 16.1001 17.4001 17.5C17.5345 17.7015 17.7526 18.157 17.9001 18.5C18.0029 18.739 18.0883 18.9901 18.1413 19.1463L18.1444 19.1554C18.4119 19.9426 18.6817 20.9544 18.9268 22.195C19.4752 24.9702 19.9001 28.8901 19.9001 34V43C20.9306 44.3249 24.1979 47.0539 26.4001 48.5C27.4001 49 26.4001 49 26.4001 49Z" fill="#456BA5"/>
<path d="M26.4001 49C20.7334 50.3333 8.30007 52.2 3.90007 49C-0.499928 45.8 1.06674 37.3333 2.40007 33.5C3.06676 32 5.70015 27.3 10.9001 20.5C16.1001 13.7 16.4669 16.1001 17.4001 17.5C17.5345 17.7015 17.7526 18.157 17.9001 18.5C18.005 18.7437 18.0916 19 18.1444 19.1554M26.4001 49C26.4001 49 27.4001 49 26.4001 48.5M26.4001 49V48.75V48.5M18.1444 19.1554C18.4119 19.9426 18.6817 20.9544 18.9268 22.195M18.1444 19.1554L18.9268 22.195M18.9268 22.195C19.4752 24.9702 19.9001 28.8901 19.9001 34C19.9001 43.6 19.9001 44 19.9001 43C20.9306 44.3249 24.1979 47.0539 26.4001 48.5" stroke="#456BA5"/>
<circle cx="7.52891" cy="7.52891" r="7.52891" transform="matrix(-1 0 0 1 58.0579 0)" fill="#49A93F"/>
<path d="M43.502 49.1889C49.1905 50.5274 61.6718 52.4012 66.0887 49.1889C70.5057 45.9765 68.933 37.4772 67.5945 33.6291C66.9253 32.1233 64.2817 27.4052 59.0617 20.579C53.8416 13.7528 53.4735 16.1621 52.5366 17.5675C52.4018 17.7698 52.1828 18.227 52.0347 18.5713C51.9315 18.8112 51.8459 19.0633 51.7926 19.2201L51.7895 19.2293C51.521 20.0194 51.2501 21.0352 51.0041 22.2806C50.4536 25.0665 50.027 29.0015 50.027 34.1311V43.1658C48.9926 44.4957 45.7126 47.2353 43.502 48.687C42.4981 49.1889 43.502 49.1889 43.502 49.1889Z" fill="#49A93F"/>
<path d="M43.502 49.1889C49.1905 50.5274 61.6718 52.4012 66.0887 49.1889C70.5057 45.9765 68.933 37.4772 67.5945 33.6291C66.9253 32.1233 64.2817 27.4052 59.0617 20.579C53.8416 13.7528 53.4735 16.1621 52.5366 17.5675C52.4018 17.7698 52.1828 18.227 52.0347 18.5713C51.9295 18.8159 51.8425 19.0732 51.7895 19.2293M43.502 49.1889C43.502 49.1889 42.4981 49.1889 43.502 48.687M43.502 49.1889V48.9379V48.687M51.7895 19.2293C51.521 20.0194 51.2501 21.0352 51.0041 22.2806M51.7895 19.2293L51.0041 22.2806M51.0041 22.2806C50.4536 25.0665 50.027 29.0015 50.027 34.1311C50.027 43.7681 50.027 44.1696 50.027 43.1658C48.9926 44.4957 45.7126 47.2353 43.502 48.687" stroke="#49A93F"/>
<path d="M29.3511 40.5C27.7738 33.6446 31.8405 22.0504 34.9918 21C38.1431 22.0504 42.2752 33.6446 40.6913 40.5C39.4918 43.5 38.4918 45.5 34.9918 45.5C31.8295 45.5 30.4918 43.5 29.3511 40.5Z" fill="#F08C2C" stroke="#F08C2C"/>
<path d="M41 13C41 16.3137 38.3137 19 35 19C31.6863 19 29 16.3137 29 13C29 9.68629 31.6863 7 35 7C38.3137 7 41 9.68629 41 13Z" fill="#F08C2C"/>
</svg>
