<svg width="267" height="85" viewBox="0 0 267 85" fill="none" xmlns="http://www.w3.org/2000/svg">
<path d="M105.072 31.824H101.424V36H99.504V25.12H105.552V26.96H101.424V29.984H105.072V31.824ZM107.326 25.12H109.294V32.096C109.294 32.8 109.449 33.3547 109.758 33.76C110.067 34.1547 110.563 34.352 111.246 34.352C111.929 34.352 112.425 34.1547 112.734 33.76C113.043 33.3547 113.198 32.8 113.198 32.096V25.12H115.166V32.096C115.166 33.3227 114.841 34.3093 114.19 35.056C113.539 35.792 112.558 36.16 111.246 36.16C109.923 36.16 108.937 35.792 108.286 35.056C107.646 34.3093 107.326 33.3227 107.326 32.096V25.12ZM117.926 36V25.12H119.686C120.529 26.2187 121.329 27.3813 122.086 28.608C122.843 29.824 123.531 31.0773 124.15 32.368L124.006 29.12V25.12H125.846V36H124.086C123.403 34.656 122.694 33.3067 121.958 31.952C121.233 30.5867 120.459 29.3013 119.638 28.096L119.766 31.84V36H117.926ZM128.848 36V25.12H132.528C133.829 25.12 134.821 25.4827 135.504 26.208C136.186 26.9333 136.528 28 136.528 29.408V31.696C136.528 33.1147 136.186 34.1867 135.504 34.912C134.821 35.6373 133.829 36 132.528 36H128.848ZM132.448 26.96H130.768V34.16H132.448C133.205 34.16 133.744 33.9733 134.064 33.6C134.394 33.2267 134.56 32.592 134.56 31.696V29.408C134.56 28.5227 134.394 27.8933 134.064 27.52C133.744 27.1467 133.205 26.96 132.448 26.96ZM144.546 36L143.874 33.872H140.146L139.474 36H137.57L141.202 25.12H142.898L146.546 36H144.546ZM141.186 30.544L140.69 32.112H143.314L142.818 30.544L142.018 27.792L141.186 30.544ZM149.523 31.696C149.523 32.4747 149.694 33.1147 150.035 33.616C150.376 34.1067 150.936 34.352 151.715 34.352C152.035 34.352 152.366 34.3093 152.707 34.224C153.059 34.1387 153.491 33.9947 154.003 33.792L154.595 35.456C154.019 35.712 153.486 35.8933 152.995 36C152.515 36.1067 152.051 36.16 151.603 36.16C150.707 36.16 149.955 35.968 149.347 35.584C148.75 35.2 148.302 34.672 148.003 34C147.704 33.328 147.555 32.56 147.555 31.696V29.408C147.555 28.544 147.704 27.776 148.003 27.104C148.302 26.432 148.75 25.9093 149.347 25.536C149.955 25.152 150.707 24.96 151.603 24.96C152.04 24.96 152.494 25.0133 152.963 25.12C153.432 25.216 153.944 25.3867 154.499 25.632L153.907 27.328C153.416 27.1253 153.006 26.9813 152.675 26.896C152.344 26.8107 152.024 26.768 151.715 26.768C150.936 26.768 150.376 27.0133 150.035 27.504C149.694 27.9947 149.523 28.6293 149.523 29.408V31.696ZM158.518 36H156.598V25.12H158.518V36ZM169.216 29.408V31.696C169.216 33.0827 168.869 34.176 168.176 34.976C167.482 35.7653 166.469 36.16 165.136 36.16C163.792 36.16 162.773 35.7653 162.08 34.976C161.397 34.176 161.056 33.0827 161.056 31.696V29.408C161.056 28.0213 161.397 26.9333 162.08 26.144C162.773 25.3547 163.792 24.96 165.136 24.96C166.469 24.96 167.482 25.3547 168.176 26.144C168.869 26.9333 169.216 28.0213 169.216 29.408ZM167.248 29.408C167.248 28.5333 167.077 27.8773 166.736 27.44C166.394 26.992 165.861 26.768 165.136 26.768C164.41 26.768 163.877 26.992 163.536 27.44C163.194 27.8773 163.024 28.5333 163.024 29.408V31.696C163.024 32.5707 163.194 33.232 163.536 33.68C163.877 34.128 164.41 34.352 165.136 34.352C165.861 34.352 166.394 34.128 166.736 33.68C167.077 33.232 167.248 32.5707 167.248 31.696V29.408ZM165.952 23.968H164.336L165.872 21.312L167.6 22.048L165.952 23.968ZM171.754 36V25.12H173.514C174.357 26.2187 175.157 27.3813 175.914 28.608C176.671 29.824 177.359 31.0773 177.978 32.368L177.834 29.12V25.12H179.674V36H177.914C177.231 34.656 176.522 33.3067 175.786 31.952C175.061 30.5867 174.287 29.3013 173.466 28.096L173.594 31.84V36H171.754ZM191.671 36L190.999 33.872H187.271L186.599 36H184.695L188.327 25.12H190.023L193.671 36H191.671ZM188.311 30.544L187.815 32.112H190.439L189.943 30.544L189.143 27.792L188.311 30.544ZM195.488 36V25.12H199.072C200.214 25.12 201.067 25.408 201.632 25.984C202.208 26.56 202.496 27.328 202.496 28.288V29.136C202.496 30.096 202.208 30.8693 201.632 31.456C201.067 32.032 200.214 32.32 199.072 32.32H197.408V36H195.488ZM199.072 26.96H197.408V30.48H199.072C199.542 30.48 199.899 30.3627 200.144 30.128C200.4 29.8933 200.528 29.5627 200.528 29.136V28.288C200.528 27.872 200.4 27.5467 200.144 27.312C199.899 27.0773 199.542 26.96 199.072 26.96ZM209.749 36L209.077 33.872H205.349L204.677 36H202.773L206.405 25.12H208.101L211.749 36H209.749ZM206.389 30.544L205.893 32.112H208.517L208.021 30.544L207.221 27.792L206.389 30.544ZM213.567 36V25.12H215.327C216.169 26.2187 216.969 27.3813 217.727 28.608C218.484 29.824 219.172 31.0773 219.791 32.368L219.647 29.12V25.12H221.487V36H219.727C219.044 34.656 218.335 33.3067 217.599 31.952C216.873 30.5867 216.1 29.3013 215.279 28.096L215.407 31.84V36H213.567ZM226.408 36H224.488V25.12H226.408V36ZM229.41 36V25.12H231.17C232.013 26.2187 232.813 27.3813 233.57 28.608C234.328 29.824 235.016 31.0773 235.634 32.368L235.49 29.12V25.12H237.33V36H235.57C234.888 34.656 234.178 33.3067 233.442 31.952C232.717 30.5867 231.944 29.3013 231.122 28.096L231.25 31.84V36H229.41ZM246.636 34.16V36H240.332V25.12H246.476V26.96H242.252V29.568H245.996V31.408H242.252V34.16H246.636ZM251.278 34.384C252.516 34.384 253.134 33.9253 253.134 33.008C253.134 32.6347 253.038 32.3413 252.846 32.128C252.665 31.9147 252.324 31.728 251.822 31.568L250.51 31.136C248.942 30.624 248.158 29.5947 248.158 28.048C248.158 27.152 248.436 26.416 248.99 25.84C249.556 25.2533 250.436 24.96 251.63 24.96C252.132 24.96 252.628 25.0187 253.118 25.136C253.609 25.2427 254.132 25.4187 254.686 25.664L254.094 27.312C253.582 27.1093 253.145 26.9653 252.782 26.88C252.43 26.784 252.068 26.736 251.694 26.736C251.204 26.736 250.814 26.8267 250.526 27.008C250.249 27.1787 250.11 27.4933 250.11 27.952C250.11 28.2933 250.206 28.576 250.398 28.8C250.601 29.0133 250.932 29.1947 251.39 29.344L252.702 29.776C253.492 30.0427 254.084 30.432 254.478 30.944C254.884 31.4453 255.086 32.112 255.086 32.944C255.086 33.904 254.782 34.6827 254.174 35.28C253.566 35.8667 252.612 36.16 251.31 36.16C250.798 36.16 250.265 36.1013 249.71 35.984C249.166 35.856 248.569 35.6427 247.918 35.344L248.51 33.696C249.108 33.952 249.614 34.1333 250.03 34.24C250.457 34.336 250.873 34.384 251.278 34.384Z" fill="black"/>
<path d="M131.296 59L130.624 56.872H126.896L126.224 59H124.32L127.952 48.12H129.648L133.296 59H131.296ZM127.936 53.544L127.44 55.112H130.064L129.568 53.544L128.768 50.792L127.936 53.544ZM137.209 48.12L140.249 55.56L143.273 48.12H145.369V59H143.529V54.84L143.769 51.032L141.065 57.72H139.353L136.713 51.016L136.953 54.84V59H135.113V48.12H137.209ZM156.075 52.408V54.696C156.075 56.0827 155.728 57.176 155.035 57.976C154.342 58.7653 153.328 59.16 151.995 59.16C150.651 59.16 149.632 58.7653 148.939 57.976C148.256 57.176 147.915 56.0827 147.915 54.696V52.408C147.915 51.0213 148.256 49.9333 148.939 49.144C149.632 48.3547 150.651 47.96 151.995 47.96C153.328 47.96 154.342 48.3547 155.035 49.144C155.728 49.9333 156.075 51.0213 156.075 52.408ZM154.107 52.408C154.107 51.5333 153.936 50.8773 153.595 50.44C153.254 49.992 152.72 49.768 151.995 49.768C151.27 49.768 150.736 49.992 150.395 50.44C150.054 50.8773 149.883 51.5333 149.883 52.408V54.696C149.883 55.5707 150.054 56.232 150.395 56.68C150.736 57.128 151.27 57.352 151.995 57.352C152.72 57.352 153.254 57.128 153.595 56.68C153.936 56.232 154.107 55.5707 154.107 54.696V52.408ZM160.533 55V59H158.613V48.12H162.245C163.344 48.12 164.187 48.4027 164.773 48.968C165.371 49.5227 165.669 50.2693 165.669 51.208V51.896C165.669 52.5147 165.536 53.0587 165.269 53.528C165.003 53.9973 164.619 54.3547 164.117 54.6C164.992 56.0933 165.739 57.56 166.357 59H164.165C163.632 57.6667 162.997 56.3333 162.261 55H160.533ZM162.245 49.88H160.533V53.24H162.245C162.715 53.24 163.072 53.1227 163.317 52.888C163.573 52.6427 163.701 52.312 163.701 51.896V51.208C163.701 50.8027 163.573 50.4827 163.317 50.248C163.072 50.0027 162.715 49.88 162.245 49.88ZM173.935 57.384C175.172 57.384 175.791 56.9253 175.791 56.008C175.791 55.6347 175.695 55.3413 175.503 55.128C175.321 54.9147 174.98 54.728 174.479 54.568L173.167 54.136C171.599 53.624 170.815 52.5947 170.815 51.048C170.815 50.152 171.092 49.416 171.647 48.84C172.212 48.2533 173.092 47.96 174.286 47.96C174.788 47.96 175.284 48.0187 175.775 48.136C176.265 48.2427 176.788 48.4187 177.343 48.664L176.751 50.312C176.239 50.1093 175.801 49.9653 175.439 49.88C175.087 49.784 174.724 49.736 174.351 49.736C173.86 49.736 173.471 49.8267 173.183 50.008C172.905 50.1787 172.767 50.4933 172.767 50.952C172.767 51.2933 172.863 51.576 173.055 51.8C173.257 52.0133 173.588 52.1947 174.047 52.344L175.359 52.776C176.148 53.0427 176.74 53.432 177.135 53.944C177.54 54.4453 177.743 55.112 177.743 55.944C177.743 56.904 177.439 57.6827 176.831 58.28C176.223 58.8667 175.268 59.16 173.967 59.16C173.455 59.16 172.921 59.1013 172.367 58.984C171.823 58.856 171.225 58.6427 170.575 58.344L171.167 56.696C171.764 56.952 172.271 57.1333 172.687 57.24C173.113 57.336 173.529 57.384 173.935 57.384ZM181.768 59H179.848V48.12H181.768V59ZM184.77 59V48.12H186.53C187.372 49.2187 188.172 50.3813 188.93 51.608C189.687 52.824 190.375 54.0773 190.994 55.368L190.85 52.12V48.12H192.69V59H190.93C190.247 57.656 189.538 56.3067 188.802 54.952C188.076 53.5867 187.303 52.3013 186.482 51.096L186.61 54.84V59H184.77ZM205.167 57.16V59H198.895V48.12H200.815V57.16H205.167ZM208.924 59H207.004V48.12H208.924V59ZM208.78 46.968H207.164L208.7 44.312L210.428 45.048L208.78 46.968ZM214.022 48.12L217.062 55.56L220.086 48.12H222.182V59H220.342V54.84L220.582 51.032L217.878 57.72H216.166L213.526 51.016L213.766 54.84V59H211.926V48.12H214.022ZM227.112 59H225.192V48.12H227.112V59ZM228.817 49.96V48.12H236.817V49.96H233.777V59H231.857V49.96H228.817ZM244.839 57.16V59H238.535V48.12H244.679V49.96H240.455V52.568H244.199V54.408H240.455V57.16H244.839ZM249.481 57.384C250.719 57.384 251.337 56.9253 251.337 56.008C251.337 55.6347 251.241 55.3413 251.049 55.128C250.868 54.9147 250.527 54.728 250.025 54.568L248.713 54.136C247.145 53.624 246.361 52.5947 246.361 51.048C246.361 50.152 246.639 49.416 247.193 48.84C247.759 48.2533 248.639 47.96 249.833 47.96C250.335 47.96 250.831 48.0187 251.321 48.136C251.812 48.2427 252.335 48.4187 252.889 48.664L252.297 50.312C251.785 50.1093 251.348 49.9653 250.985 49.88C250.633 49.784 250.271 49.736 249.897 49.736C249.407 49.736 249.017 49.8267 248.729 50.008C248.452 50.1787 248.313 50.4933 248.313 50.952C248.313 51.2933 248.409 51.576 248.601 51.8C248.804 52.0133 249.135 52.1947 249.593 52.344L250.905 52.776C251.695 53.0427 252.287 53.432 252.681 53.944C253.087 54.4453 253.289 55.112 253.289 55.944C253.289 56.904 252.985 57.6827 252.377 58.28C251.769 58.8667 250.815 59.16 249.513 59.16C249.001 59.16 248.468 59.1013 247.913 58.984C247.369 58.856 246.772 58.6427 246.121 58.344L246.713 56.696C247.311 56.952 247.817 57.1333 248.233 57.24C248.66 57.336 249.076 57.384 249.481 57.384Z" fill="black"/>
<ellipse cx="49.5833" cy="72.25" rx="49.5833" ry="12.75" fill="#F6EA3A"/>
<circle cx="27.4835" cy="10.625" r="10.625" fill="#456BA5"/>
<path d="M37.4001 69.4166C29.3723 71.3055 11.7585 73.95 5.52512 69.4166C-0.70821 64.8833 1.51123 52.8888 3.40012 47.4583C4.3446 45.3333 8.07523 38.675 15.4419 29.0416C22.8086 19.4083 23.3281 22.8084 24.6502 24.7916C24.8406 25.0771 25.1495 25.7224 25.3586 26.2083C25.5042 26.5468 25.625 26.9026 25.7002 27.1238L25.7046 27.1368C26.0836 28.2519 26.4658 29.6854 26.813 31.4429C27.5898 35.3745 28.1919 40.9277 28.1919 48.1666V60.9166C29.6516 62.7935 34.2804 66.6597 37.4001 68.7083C38.8169 69.4166 37.4001 69.4166 37.4001 69.4166Z" fill="#456BA5"/>
<path d="M37.4001 69.4166C29.3723 71.3055 11.7585 73.95 5.52512 69.4166C-0.70821 64.8833 1.51123 52.8888 3.40012 47.4583C4.3446 45.3333 8.07523 38.675 15.4419 29.0416C22.8086 19.4083 23.3281 22.8084 24.6502 24.7916C24.8406 25.0771 25.1495 25.7224 25.3586 26.2083C25.507 26.5535 25.6298 26.9166 25.7046 27.1368M37.4001 69.4166C37.4001 69.4166 38.8169 69.4167 37.4001 68.7083M37.4001 69.4166V69.0625V68.7083M25.7046 27.1368C26.0836 28.252 26.4658 29.6854 26.813 31.4429M25.7046 27.1368L26.813 31.4429M26.813 31.4429C27.5898 35.3745 28.1919 40.9277 28.1919 48.1666C28.1919 61.7666 28.1919 62.3333 28.1919 60.9166C29.6516 62.7935 34.2804 66.6597 37.4001 68.7083" stroke="#456BA5"/>
<circle cx="10.666" cy="10.666" r="10.666" transform="matrix(-1 0 0 1 82.2487 0)" fill="#49A93F"/>
<path d="M61.6278 69.6843C69.6866 71.5804 87.3684 74.2351 93.6257 69.6843C99.8831 65.1335 97.6551 53.0928 95.7589 47.6413C94.8108 45.5081 91.0658 38.8241 83.6707 29.1536C76.2757 19.4831 75.7541 22.8964 74.4269 24.8872C74.2358 25.1738 73.9257 25.8215 73.7158 26.3094C73.5697 26.6492 73.4483 27.0063 73.3728 27.2284L73.3684 27.2415C72.988 28.3609 72.6044 29.7999 72.2558 31.5642C71.4759 35.5109 70.8716 41.0855 70.8716 48.3524V61.1515C69.4062 63.0356 64.7595 66.9168 61.6278 68.9732C60.2056 69.6843 61.6278 69.6843 61.6278 69.6843Z" fill="#49A93F"/>
<path d="M61.6278 69.6843C69.6866 71.5804 87.3684 74.2351 93.6257 69.6843C99.8831 65.1335 97.6551 53.0928 95.7589 47.6413C94.8108 45.5081 91.0658 38.8241 83.6707 29.1536C76.2757 19.4831 75.7541 22.8964 74.4269 24.8872C74.2358 25.1738 73.9257 25.8215 73.7158 26.3094C73.5668 26.6559 73.4435 27.0204 73.3684 27.2415M61.6278 69.6843C61.6278 69.6843 60.2056 69.6843 61.6278 68.9732M61.6278 69.6843V69.3287V68.9732M73.3684 27.2415C72.988 28.3609 72.6044 29.7999 72.2558 31.5642M73.3684 27.2415L72.2558 31.5642M72.2558 31.5642C71.4759 35.5109 70.8716 41.0855 70.8716 48.3524C70.8716 62.0048 70.8716 62.5736 70.8716 61.1515C69.4062 63.0356 64.7595 66.9168 61.6278 68.9732" stroke="#49A93F"/>
<path d="M41.5807 57.375C39.3463 47.6632 45.1073 31.2381 49.5716 29.75C54.036 31.2381 59.8898 47.6632 57.6459 57.375C55.9467 61.625 54.5301 64.4583 49.5716 64.4583C45.0918 64.4583 43.1967 61.625 41.5807 57.375Z" fill="#F08C2C" stroke="#F08C2C"/>
<path d="M58.0833 18.4167C58.0833 23.1111 54.2777 26.9167 49.5833 26.9167C44.8889 26.9167 41.0833 23.1111 41.0833 18.4167C41.0833 13.7223 44.8889 9.91669 49.5833 9.91669C54.2777 9.91669 58.0833 13.7223 58.0833 18.4167Z" fill="#F08C2C"/>
</svg>
